#define PSASLogo04_bob4_width 255
#define PSASLogo04_bob4_height 64
static unsigned short PSASLogo04_bob4_bits[] = {
   0x0000, 0x0000, 0x0000, 0x0000, 0x0000, 0x0000, 0x0000, 0x0000, 0x0000,
   0x0000, 0x0000, 0x0000, 0x0000, 0x0000, 0x0000, 0x0000, 0x0000, 0x0000,
   0x0000, 0x0000, 0x0000, 0x0000, 0x0000, 0x0000, 0x0010, 0x0000, 0x0000,
   0x0000, 0x0000, 0x0000, 0x0000, 0x0000, 0x0000, 0x0000, 0x0000, 0x0000,
   0x0000, 0x0000, 0x0000, 0x0000, 0x0010, 0x0000, 0x0000, 0x0000, 0x0000,
   0x0000, 0x0000, 0x0000, 0x0000, 0x0000, 0x0000, 0x0000, 0x0000, 0x0000,
   0x0000, 0x0000, 0x0008, 0x0000, 0x0000, 0x0000, 0x0000, 0x0000, 0x0000,
   0x0000, 0x0000, 0x0000, 0x0000, 0x0000, 0x0000, 0x0000, 0x0000, 0x0000,
   0x0008, 0x0000, 0x0000, 0x0000, 0x0000, 0x0000, 0x0000, 0x0000, 0x0000,
   0x0000, 0x0000, 0x0000, 0x0000, 0x0000, 0x0000, 0x0000, 0x000c, 0x0000,
   0x0000, 0x0000, 0x0000, 0x0000, 0x0000, 0x0000, 0x0000, 0x0000, 0x0000,
   0x0000, 0x0000, 0x0000, 0x0000, 0x0000, 0x000c, 0x0000, 0x0000, 0x0000,
   0x0000, 0x0000, 0x0000, 0x0000, 0x0000, 0x0000, 0x0000, 0x0000, 0x0000,
   0x0000, 0x0000, 0x0000, 0x0004, 0x0000, 0x0000, 0x0000, 0x0000, 0x0000,
   0x0000, 0x0000, 0x0000, 0x0000, 0x0000, 0x0000, 0x0000, 0x0000, 0x0000,
   0x0000, 0x0002, 0x0000, 0x0000, 0x0000, 0x0000, 0x0000, 0x0000, 0x0000,
   0x0000, 0x0000, 0x0000, 0x0000, 0x0000, 0x0000, 0x0000, 0x0000, 0x0002,
   0x0000, 0x0000, 0x0000, 0x0000, 0x0000, 0x0000, 0x0000, 0x0000, 0x0000,
   0x0000, 0x0000, 0x0000, 0x0000, 0x0000, 0x0000, 0x0002, 0x0000, 0x0000,
   0x0000, 0x0000, 0x0000, 0x0000, 0x0000, 0x0000, 0x0000, 0x0000, 0x0000,
   0x0000, 0x0000, 0x0000, 0x0000, 0x0001, 0x0000, 0x0000, 0x0000, 0x0000,
   0x0000, 0x0000, 0x0000, 0x0000, 0x0000, 0x0000, 0x0000, 0x0000, 0x0000,
   0x0000, 0x0000, 0x0001, 0x0000, 0x0000, 0x0000, 0x0000, 0x0000, 0x0000,
   0x0000, 0x0000, 0x0000, 0x0000, 0x0000, 0x0000, 0x0000, 0x0000, 0x8000,
   0x0001, 0x0000, 0x0000, 0x0000, 0x0000, 0x0000, 0x0000, 0x0000, 0x0000,
   0x0000, 0x0000, 0x0000, 0x0000, 0x0000, 0x0000, 0x8000, 0x0000, 0x0000,
   0x0000, 0x0000, 0x0000, 0x0000, 0x0000, 0x0000, 0x0000, 0x0000, 0x0000,
   0x0000, 0x0000, 0x0000, 0x0000, 0x8000, 0x0000, 0x0000, 0x0000, 0x0000,
   0x0000, 0x0000, 0x0000, 0x0000, 0x0000, 0x0000, 0x0000, 0x0000, 0x0000,
   0x0000, 0x0000, 0xc000, 0x0000, 0x0000, 0x0000, 0x0000, 0x0000, 0x0000,
   0x0000, 0x0000, 0x0000, 0x0000, 0x0000, 0x0000, 0x0000, 0x0000, 0x0000,
   0x4000, 0x0000, 0x0000, 0x0000, 0x0000, 0x0000, 0x0000, 0x0000, 0x0000,
   0x0000, 0x0000, 0x0000, 0x0000, 0x0000, 0x0000, 0x0000, 0x6000, 0x0000,
   0x0000, 0x0000, 0x0000, 0x0000, 0x0000, 0x0000, 0x0000, 0x0000, 0x0000,
   0x0000, 0x0000, 0x0000, 0x0000, 0x0000, 0x6000, 0x0000, 0x0000, 0x0000,
   0x0000, 0x0000, 0x0000, 0x0000, 0x0000, 0x0000, 0x0000, 0x0000, 0x0000,
   0x0000, 0x0000, 0x0000, 0x2000, 0x0000, 0x0000, 0x0000, 0x0000, 0x0000,
   0x0000, 0x0000, 0x0000, 0x0000, 0x0000, 0x0000, 0x0000, 0x0000, 0x0000,
   0x0000, 0x3000, 0x0000, 0x0000, 0x0000, 0x0000, 0x0000, 0x0000, 0x0000,
   0x0000, 0x0000, 0x0000, 0x0000, 0x0000, 0x0000, 0x0000, 0x0000, 0x3000,
   0x0000, 0x0000, 0x0000, 0x0000, 0x0000, 0x0000, 0x0000, 0x0000, 0x0000,
   0x0000, 0x0000, 0x0000, 0x0000, 0x0000, 0x0000, 0x1800, 0x0000, 0x0000,
   0x0000, 0x0000, 0x0000, 0x0000, 0x0000, 0x0000, 0x0000, 0x0000, 0x0000,
   0x0000, 0x0000, 0x0000, 0x0000, 0x1800, 0x0000, 0x0000, 0x0000, 0x0000,
   0x0000, 0x0000, 0x0000, 0x0000, 0x0000, 0x0000, 0x0000, 0x0000, 0x0000,
   0x0000, 0x0000, 0x1000, 0x0000, 0x0000, 0x0000, 0x0000, 0x0000, 0x0000,
   0x0000, 0x0000, 0x0000, 0x0000, 0x0000, 0x0000, 0x0000, 0x0000, 0x0000,
   0x0c00, 0x0000, 0x0000, 0x0000, 0x0000, 0x0000, 0x0000, 0x0000, 0x0000,
   0x0000, 0x0000, 0x0000, 0x0000, 0x0000, 0x0000, 0x0000, 0x0c00, 0x0000,
   0x0000, 0x0000, 0x0000, 0x0000, 0x0000, 0x0000, 0x0000, 0x0000, 0x0000,
   0x0000, 0x0000, 0x0000, 0x0000, 0x0000, 0x0a00, 0x0000, 0x0000, 0x0000,
   0x0000, 0x0000, 0x0000, 0x0000, 0x0000, 0x0000, 0x0000, 0x0000, 0x0000,
   0x0000, 0x0000, 0x0000, 0x0600, 0x0000, 0x0000, 0x0000, 0x0000, 0x0000,
   0x0000, 0x0000, 0x0000, 0x0000, 0x0000, 0x0000, 0x0000, 0x0000, 0x0000,
   0x0000, 0x0400, 0x0000, 0x0000, 0x0000, 0x0000, 0x0000, 0x0000, 0x0000,
   0x0000, 0x0000, 0x0000, 0x0000, 0x0000, 0x0000, 0x0000, 0x0000, 0x0500,
   0x0000, 0x0000, 0x0000, 0x0000, 0x0000, 0x0000, 0x0000, 0x0000, 0x0000,
   0x0000, 0x0000, 0x0000, 0x0000, 0x0000, 0x0000, 0x0300, 0x0000, 0x0000,
   0x0000, 0x0000, 0x0000, 0x0000, 0x0000, 0x0000, 0x0000, 0x0000, 0x0000,
   0x0000, 0x0000, 0x0000, 0x0000, 0x0280, 0x0000, 0x0000, 0x0000, 0x0000,
   0x0000, 0x0000, 0x0000, 0x0000, 0x0000, 0x0000, 0x0000, 0x0000, 0x0000,
   0x0000, 0x0000, 0x0280, 0x0000, 0x0000, 0x0000, 0x0000, 0x0000, 0x0000,
   0x0000, 0x0000, 0x0000, 0x0000, 0x0000, 0x0000, 0x0000, 0x0000, 0x0000,
   0x0100, 0x0000, 0x0000, 0x0000, 0x0000, 0x0000, 0x0000, 0x0000, 0x0000,
   0x0000, 0x0000, 0x0000, 0x0000, 0x0000, 0x0000, 0x0000, 0x1140, 0x0000,
   0x0000, 0x0000, 0x0000, 0x0000, 0x0000, 0x0000, 0x0000, 0x0000, 0x0000,
   0x0000, 0x0000, 0x0000, 0x0000, 0x0000, 0x3940, 0x0000, 0x0000, 0x0000,
   0x0000, 0x0000, 0x0000, 0x0000, 0x0000, 0x0000, 0x0000, 0x0000, 0x0000,
   0x4000, 0x0007, 0xf3f0, 0x7823, 0xfdfc, 0x21f9, 0x0001, 0x0000, 0x0000,
   0x0000, 0x0000, 0x0000, 0x0000, 0x0000, 0x0000, 0x0000, 0xf000, 0x8fce,
   0x32c1, 0x6ca0, 0x8c0c, 0xf30d, 0x03f3, 0x0000, 0x0000, 0x0000, 0x0000,
   0x0000, 0x0000, 0x0000, 0x0000, 0x0000, 0x3000, 0xc300, 0xf0c3, 0xe6a0,
   0xbc7c, 0x130d, 0xc632, 0x0170, 0x0000, 0x0000, 0x0000, 0x0000, 0x0000,
   0x0000, 0x0000, 0x8000, 0xf00f, 0x430f, 0xb086, 0xfe50, 0xfc0c, 0xf30c,
   0xe6b3, 0xf3b1, 0x0802, 0x0000, 0x0000, 0x0000, 0x0000, 0x0000, 0x0000,
   0xcc20, 0xe018, 0xe30e, 0xb0c7, 0x8352, 0xc4bd, 0x132c, 0x33f2, 0xb211,
   0xfc02, 0x0000, 0x0000, 0x0000, 0x0000, 0x0000, 0x8000, 0xc860, 0x0010,
   0x630c, 0xf08c, 0x024b, 0x84e9, 0xf3f9, 0xf833, 0xb01b, 0xc600, 0x0001,
   0x0000, 0x0000, 0x0000, 0x0000, 0xc000, 0xcde1, 0xf030, 0x120f, 0x0000,
   0x0028, 0x0000, 0xa000, 0x1812, 0xf313, 0x1e00, 0x0030, 0x0000, 0x0000,
   0x0000, 0x0000, 0x406c, 0xcf63, 0xc01c, 0x0002, 0x0000, 0x5564, 0x2555,
   0x0000, 0x0000, 0x13f6, 0xfc00, 0x03f9, 0x0000, 0x0000, 0x0000, 0xe000,
   0xc047, 0xdc66, 0x0007, 0xd000, 0xffff, 0xffe7, 0xffff, 0xffff, 0x000a,
   0xf000, 0x8203, 0xf609, 0x0001, 0x0000, 0x0000, 0x1f00, 0xe043, 0x006f,
   0x0000, 0xfffd, 0xffff, 0xfff7, 0xffff, 0xffff, 0xffff, 0x000a, 0xbe00,
   0x3209, 0x0027, 0x0000, 0x0000, 0x19c8, 0x28c3, 0x0008, 0xffa0, 0xffff,
   0xffff, 0xaad3, 0xf6aa, 0xffff, 0xffff, 0x17ff, 0xfc00, 0x331c, 0x0732,
   0x0000, 0x8400, 0x18cf, 0x2fc2, 0xe000, 0xffff, 0xbfff, 0x0002, 0x0012,
   0x0000, 0x0000, 0xffea, 0xffff, 0x0017, 0x13f8, 0x3f30, 0x0000, 0xefe0,
   0x0f98, 0x0083, 0xffe0, 0xffff, 0x0002, 0x0000, 0x000a, 0x0000, 0x0000,
   0x8000, 0xfffe, 0x17ff, 0x3180, 0x8333, 0x000f, 0x6cf0, 0x1d98, 0xa002,
   0xffff, 0x00bf, 0x0000, 0x0000, 0x0009, 0x0000, 0x0000, 0x0000, 0xf400,
   0xffff, 0xe007, 0x0f33, 0x00bc, 0x4e30, 0x1190, 0xff80, 0x2fff, 0x0000,
   0x0000, 0x0000, 0x0009, 0x0000, 0x0000, 0x0000, 0x0000, 0xffe8, 0x02ff,
   0x0190, 0x0186, 0x47f0, 0x001e, 0xfffc, 0x002f, 0x0000, 0x0000, 0x8000,
   0x0004, 0x0000, 0x0000, 0x0000, 0x0000, 0xf400, 0x5fff, 0x1f80, 0x1b06,
   0xc060, 0xf00b, 0x3fff, 0x0000, 0x0000, 0x0000, 0x8000, 0x0004, 0x0000,
   0x0000, 0x0000, 0x0000, 0x0000, 0xfffa, 0x1807, 0x0f02, 0x0060, 0xff00,
   0x017f, 0x0000, 0x0000, 0x0000, 0x4000, 0x0004, 0x0000, 0x0000, 0x0000,
   0x0000, 0x0000, 0xff00, 0x00ff, 0x0202, 0x0060, 0xfff8, 0x0003, 0x0000,
   0x0000, 0x0000, 0x4000, 0x0000, 0x0000, 0x0000, 0x0000, 0x0000, 0x0000,
   0xe000, 0x0fff, 0x0300, 0xc040, 0x1fff, 0x0000, 0x0000, 0x0000, 0x0000,
   0x4000, 0x0002, 0x0000, 0x0000, 0x0000, 0x0000, 0x0000, 0x0000, 0xfff8,
   0x0301, 0xfc00, 0x00ff, 0x0000, 0x0000, 0x0000, 0x0000, 0x2000, 0x0002,
   0x0000, 0x0000, 0x0000, 0x0000, 0x0000, 0x0000, 0xff80, 0x000f, 0xff80,
   0x000f, 0x0000, 0x0000, 0x0000, 0x0000, 0x2000, 0x0001, 0x0000, 0x0000,
   0x0000, 0x0000, 0x0000, 0x0000, 0xf000, 0x01ff, 0x7ff8, 0x0000, 0x0000,
   0x0000, 0x0000, 0x0000, 0x6000, 0x0001, 0x0000, 0x0000, 0x0000, 0x0000,
   0x0000, 0x0000, 0x0000, 0x0fff, 0x07ff, 0x0000, 0x0000, 0x0000, 0x0000,
   0x0000, 0x0000, 0x0000, 0x0000, 0x0000, 0x0000, 0x0000, 0x0000, 0x0000,
   0x0000, 0x7ff0, 0x007f, 0x0000, 0x0000, 0x0000, 0x0000, 0x0000, 0x0000,
   0x0000, 0x0000, 0x0000, 0x0000, 0x0000, 0x0000, 0x0000, 0x0000, 0x7f00,
   0x0007, 0x0000, 0x0000, 0x0000, 0x0000, 0x0000, 0x0000, 0x0000, 0x0000,
   0x0000, 0x0000, 0x0000, 0x0000, 0x0000, 0x0000, 0x7000 };
